# xmcd CD database file
#
# Track frame offsets:
#	150
#	19885
#	38210
#	56335
#	71203
#	90918
#	106565
#	122225
#	139593
#	155655
#
# Disc length: 2305 seconds
#
# Revision: 0
# Processed by: cddbd v1.4PL0 Copyright (c) Steve Scherf et al.
# Submitted via: CDex 1.50Beta7
#
DISCID=7d08ff0a
DTITLE=Reba McEntire - Read My Mind
DYEAR=1994
DGENRE=Country
TTITLE0=Everything That You Want
TTITLE1=Read My Mind
TTITLE2=I Wont Stand In Line
TTITLE3=I Wish I Could Tell You
TTITLE4=She Thinks His Name Was John
TTITLE5=Why Havent I Heard From You
TTITLE6=And Still
TTITLE7=The Heart Is A Lonely Hunter
TTITLE8=I Wouldnt Wanna Be You
TTITLE9=Till You Love Me
EXTD=YEAR: 1994
EXTT0=
EXTT1=
EXTT2=
EXTT3=
EXTT4=
EXTT5=
EXTT6=
EXTT7=
EXTT8=
EXTT9=
PLAYORDER=
